<mxfile host="app.diagrams.net" modified="2022-02-15T05:54:28.882Z" agent="5.0 (Macintosh; Intel Mac OS X 10_15_7) AppleWebKit/537.36 (KHTML, like Gecko) Chrome/98.0.4758.80 Safari/537.36" etag="6Ty_ZfNQ_0-upQq69E0f" version="16.5.6" type="github">
  <diagram id="IemuaXq5Jafa3FOG4-sM" name="Page-1">
    <mxGraphModel dx="1298" dy="699" grid="1" gridSize="10" guides="1" tooltips="1" connect="1" arrows="1" fold="1" page="1" pageScale="1" pageWidth="827" pageHeight="300" math="0" shadow="0">
      <root>
        <mxCell id="0" />
        <mxCell id="1" parent="0" />
        <mxCell id="P54xbyG1vfTX99tcjYp0-6" style="edgeStyle=orthogonalEdgeStyle;rounded=0;orthogonalLoop=1;jettySize=auto;html=1;exitX=0;exitY=0.5;exitDx=0;exitDy=0;startArrow=classic;startFill=1;strokeColor=default;strokeWidth=3;" edge="1" parent="1" source="P54xbyG1vfTX99tcjYp0-1" target="P54xbyG1vfTX99tcjYp0-5">
          <mxGeometry relative="1" as="geometry" />
        </mxCell>
        <mxCell id="P54xbyG1vfTX99tcjYp0-7" style="edgeStyle=orthogonalEdgeStyle;rounded=0;orthogonalLoop=1;jettySize=auto;html=1;exitX=1;exitY=0.5;exitDx=0;exitDy=0;entryX=0;entryY=0.5;entryDx=0;entryDy=0;startArrow=classic;startFill=1;endArrow=classic;endFill=1;strokeColor=default;strokeWidth=3;" edge="1" parent="1" source="P54xbyG1vfTX99tcjYp0-1" target="P54xbyG1vfTX99tcjYp0-2">
          <mxGeometry relative="1" as="geometry" />
        </mxCell>
        <mxCell id="P54xbyG1vfTX99tcjYp0-1" value="http_proxy" style="rounded=1;whiteSpace=wrap;html=1;" vertex="1" parent="1">
          <mxGeometry x="355" y="68" width="120" height="60" as="geometry" />
        </mxCell>
        <mxCell id="P54xbyG1vfTX99tcjYp0-13" style="edgeStyle=orthogonalEdgeStyle;rounded=0;orthogonalLoop=1;jettySize=auto;html=1;exitX=0.5;exitY=1;exitDx=0;exitDy=0;fontSize=30;startArrow=none;startFill=0;endArrow=classic;endFill=1;strokeColor=default;strokeWidth=3;" edge="1" parent="1" source="P54xbyG1vfTX99tcjYp0-2" target="P54xbyG1vfTX99tcjYp0-12">
          <mxGeometry relative="1" as="geometry" />
        </mxCell>
        <mxCell id="P54xbyG1vfTX99tcjYp0-14" style="edgeStyle=orthogonalEdgeStyle;rounded=0;orthogonalLoop=1;jettySize=auto;html=1;exitX=0.5;exitY=1;exitDx=0;exitDy=0;fontSize=30;startArrow=none;startFill=0;endArrow=classic;endFill=1;strokeColor=default;strokeWidth=3;" edge="1" parent="1" source="P54xbyG1vfTX99tcjYp0-2" target="P54xbyG1vfTX99tcjYp0-11">
          <mxGeometry relative="1" as="geometry" />
        </mxCell>
        <mxCell id="P54xbyG1vfTX99tcjYp0-2" value="tcp server" style="rounded=1;whiteSpace=wrap;html=1;" vertex="1" parent="1">
          <mxGeometry x="625" y="68" width="120" height="60" as="geometry" />
        </mxCell>
        <mxCell id="P54xbyG1vfTX99tcjYp0-15" style="edgeStyle=orthogonalEdgeStyle;rounded=0;orthogonalLoop=1;jettySize=auto;html=1;exitX=1;exitY=0.3333333333333333;exitDx=0;exitDy=0;exitPerimeter=0;fontSize=30;startArrow=classic;startFill=1;endArrow=classic;endFill=1;strokeColor=default;strokeWidth=3;" edge="1" parent="1" source="P54xbyG1vfTX99tcjYp0-3" target="P54xbyG1vfTX99tcjYp0-5">
          <mxGeometry relative="1" as="geometry" />
        </mxCell>
        <mxCell id="P54xbyG1vfTX99tcjYp0-3" value="Actor" style="shape=umlActor;verticalLabelPosition=bottom;verticalAlign=top;html=1;outlineConnect=0;" vertex="1" parent="1">
          <mxGeometry x="35" y="78" width="30" height="60" as="geometry" />
        </mxCell>
        <mxCell id="P54xbyG1vfTX99tcjYp0-5" value="" style="dashed=0;outlineConnect=0;html=1;align=center;labelPosition=center;verticalLabelPosition=bottom;verticalAlign=top;shape=mxgraph.weblogos.chrome" vertex="1" parent="1">
          <mxGeometry x="155" y="60.30000000000001" width="74.8" height="75.4" as="geometry" />
        </mxCell>
        <mxCell id="P54xbyG1vfTX99tcjYp0-9" value="HTTP" style="text;html=1;strokeColor=none;fillColor=none;align=center;verticalAlign=middle;whiteSpace=wrap;rounded=0;fontSize=30;" vertex="1" parent="1">
          <mxGeometry x="265" y="60" width="60" height="30" as="geometry" />
        </mxCell>
        <mxCell id="P54xbyG1vfTX99tcjYp0-10" value="RPC" style="text;html=1;strokeColor=none;fillColor=none;align=center;verticalAlign=middle;whiteSpace=wrap;rounded=0;fontSize=30;" vertex="1" parent="1">
          <mxGeometry x="525" y="60" width="60" height="30" as="geometry" />
        </mxCell>
        <mxCell id="P54xbyG1vfTX99tcjYp0-11" value="" style="sketch=0;outlineConnect=0;fontColor=#232F3E;gradientColor=none;fillColor=#2E27AD;strokeColor=none;dashed=0;verticalLabelPosition=bottom;verticalAlign=top;align=center;html=1;fontSize=12;fontStyle=0;aspect=fixed;pointerEvents=1;shape=mxgraph.aws4.rds_mysql_instance;" vertex="1" parent="1">
          <mxGeometry x="715" y="188" width="78" height="78" as="geometry" />
        </mxCell>
        <mxCell id="P54xbyG1vfTX99tcjYp0-12" value="" style="sketch=0;aspect=fixed;html=1;points=[];align=center;image;fontSize=12;image=img/lib/mscae/Cache_Redis_Product.svg;" vertex="1" parent="1">
          <mxGeometry x="595" y="188" width="71.43" height="60" as="geometry" />
        </mxCell>
      </root>
    </mxGraphModel>
  </diagram>
</mxfile>
